<?xml version="1.0" standalone="no"?>
<!DOCTYPE svg PUBLIC "-//W3C//DTD SVG 20010904//EN"
 "http://www.w3.org/TR/2001/REC-SVG-20010904/DTD/svg10.dtd">
<svg version="1.0" xmlns="http://www.w3.org/2000/svg"
 width="1280.000000pt" height="640.000000pt" viewBox="0 0 1280.000000 640.000000"
 preserveAspectRatio="xMidYMid meet">
<metadata>
Created by potrace 1.15, written by Peter Selinger 2001-2017
</metadata>
<g transform="translate(0.000000,640.000000) scale(0.100000,-0.100000)"
fill="#000000" stroke="none">
<path d="M5975 6003 c-929 -78 -1688 -481 -2118 -1126 -138 -207 -251 -482
-299 -730 l-23 -118 -55 47 c-298 256 -635 428 -971 496 -97 20 -144 23 -319
23 -173 0 -222 -4 -312 -23 -709 -148 -1278 -731 -1435 -1470 -24 -113 -27
-150 -28 -338 l-2 -211 -43 -58 c-310 -419 -433 -944 -334 -1421 39 -191 150
-444 262 -599 l57 -80 5817 -3 5818 -2 45 77 c228 387 355 801 355 1158 0 113
1 115 34 167 18 29 58 100 89 158 199 373 299 760 284 1090 -17 367 -145 660
-396 910 -218 217 -486 354 -826 422 -93 19 -143 22 -330 22 -200 0 -231 -2
-346 -27 -409 -87 -760 -295 -1014 -601 l-88 -106 -82 153 c-45 83 -103 188
-130 232 -681 1127 -1752 1826 -2987 1950 -135 13 -503 18 -623 8z"/>
</g>
</svg>
